<?xml version="1.0" encoding="UTF-8"?>
<svg version="1.1" viewBox="20 0 600 500" xmlns="http://www.w3.org/2000/svg" xmlns:xlink="http://www.w3.org/1999/xlink">
  <g>
    <path
      d="m596.96 311.92c-2.8008-8.9609-7.8398-20.16-16.238-30.238 0 0-16.801-20.16-50.961-30.238-8.3984-2.8008-17.359-3.9219-26.32-5.0391-2.8008 0-5.6016-0.55859-8.9609-0.55859-28.559 0-54.879 9.5195-75.602 26.32-0.55859 0-0.55859 0.55859-0.55859 0.55859l-3.9219-3.9219 1.1211-1.1211c22.961-17.922 50.398-27.441 79.52-27.441h2.8008c-7.2812-65.52-42.559-124.32-95.762-162.4 10.078 26.32 15.121 54.879 15.121 84 0 31.359-6.1602 61.602-17.922 90.16-44.238-50.402-70.559-115.93-71.676-187.61-49.281 53.203-79.523 124.32-79.523 202.16 0 20.719 2.2383 41.441 6.1602 61.039-3.3594 0-6.1602-0.55859-7.2812-0.55859 0 0-22.398-1.6797-44.801-8.3984-44.238-12.879-92.398-50.398-94.641-52.078 0 4.4805-1.1211 15.68-9.5195 26.32-10.641 14-25.762 16.801-29.121 17.922 69.441 7.2812 106.96 25.199 123.2 34.16 8.3984 4.4805 29.121 16.801 52.078 31.359 19.602 12.879 23.52 16.238 34.719 23.52 15.121 9.5195 43.68 28 81.762 40.32 16.238 5.0391 47.602 14.559 88.48 12.32 15.68-0.55859 45.359-2.8008 78.398-18.48 16.238-7.8398 35.84-17.359 52.078-39.199 6.1602-7.8398 21.281-28.559 20.719-58.238l21.84-18.48c0.57031-0.007813-15.668-3.9258-25.188-6.1641zm-66.641 23.52c-5.6016 0-9.5195-4.4805-9.5195-9.5195 0-5.6016 4.4805-9.5195 9.5195-9.5195 5.0391 0 9.5195 4.4805 9.5195 9.5195s-3.918 9.5195-9.5195 9.5195z" />
  </g>
</svg>